# xmcd
#
# Track frame offsets: 
#        150
#        27778
#        74161
#        104997
#        146255
#        180401
#        205214
#        216925
#        247508
#        264834
#        282854
#        292453
#        311732
#
# Disc length: 4689 seconds
#
# Revision: 7
# Processed by: cddbd v1.5.2PL0 Copyright (c) Steve Scherf et al.
# Submitted via: ExactAudioCopyFreeDBPlugin 1.0
#
DISCID=cd124f0d
DTITLE=Various Artists / Romantic Piano Adagios (Disc 1)
DYEAR=2002
DGENRE=Classical
TTITLE0=Vladimir Ashkenazy / Beethoven: Sonata No. 14 in C sharp minor
TTITLE0=, Op. 27 No. 2 "Moonlight," Adagio sostenuto
TTITLE1=Zoltán Kocsis / Rachmaninov: Piano Concerto No. 2 in C minor, 
TTITLE1=Op. 18, Adagio sostenuto
TTITLE2=Alfred Brendel / Mozart: Piano Concerto No. 23 in A Major, K48
TTITLE2=8, Adagio
TTITLE3=Vladimir Ashkenazy / Chopin: Piano Concerto No. 2 in F minor, 
TTITLE3=Op. 21, Larghetto
TTITLE4=Christina Ortiz / Shostakovich: Piano Concerto No. 2 in F majo
TTITLE4=r, Op. 102, Andante
TTITLE5=Pascal Rogé / Debussy: Clair de lune (Suite bergamasque)
TTITLE6=Pascal Rogé and Christina Ortiz / Saint-Saëns: Aquarium (Carni
TTITLE6=val of the animals)
TTITLE7=Stephen Kovacevich / Grieg: Piano Concerto in A minor, Op. 16,
TTITLE7= Adagio
TTITLE8=Jorge Bolet / Liszt: Consolation No. 3
TTITLE9=Vladimir Ashkenazy / Chopin: Nocturne in E flat major, Op. 9 N
TTITLE9=o. 2
TTITLE10=Joseph Cooper / MacDowell: To a wild rose
TTITLE11=Shura Cherkassky / Rubinstein: Melody in F, Op. 3
TTITLE12=Jean-Yves Thibaudet / Addinsell: Warsaw Concerto
EXTD=YEAR: 2002
EXTT0=
EXTT1=
EXTT2=
EXTT3=
EXTT4=
EXTT5=
EXTT6=
EXTT7=
EXTT8=
EXTT9=
EXTT10=
EXTT11=
EXTT12=
PLAYORDER=
.
